magnet:?xt=urn:btih:vhit2ugvfzwn7oanvs6gq3aw535d6tnn&dn=%D0%94%D0%B8%D0%BF%D0%BB%D0%BE%D0%BC%D0%BD%D0%B0%D1%8F%20%D1%80%D0%B0%D0%B1%D0%BE%D1%82%D0%B0%20%28Tesis%29.mkv&xl=3472903458&fc=1

=-=-=-=-=-=-=-=-=-=-=-=-=-=-=-=-=-=-=-=-=-=-=-=-=-=-=-=-=-=-=-=-=-=-=-=-=-=-=-=-=-=-=-=-=-=-=-=-=-=-=-=-=-=-=-=-=-=-=-=-=
Общее
Уникальный идентификатор                 : 147475625793780644521170625532933486530 (0x6EF2C5BA96648FCF9DA9E3BDD120B7C2)
Полное имя                               : D:\Video\AV1\Дипломная работа (Tesis).mkv
Формат                                   : Matroska
Версия формата                           : Version 4
Размер файла                             : 3,23 Гбайт
Продолжительность                        : 2 ч. 3 м.
Общий поток                              : 3 738 Кбит/сек
Частота кадров                           : 23,976 кадра/сек
Название фильма                          : Дunлoмнaя pa6oma / Tesis
Кодирование произвёл                     : DiN
Описание                                 : Студентка киношколы, пишущая диссертацию о насилии в кино, находит видеокассету со снафф-муви. Героиня понимает, что на кассете запечатлено жестокое убийство студентки той же школы, исчезнувшей несколько лет назад. Начав собственное расследование, она узнаёт, что пропажи девушек в их институте - не такое уж редкое явление. Значит, вместе с ней учится маньяк и садист. Возможно, это кто-то из её хороших знакомых. Возможно, это её друг.
Дата выпуска                             : 1996
Дата кодирования                         : 2024-02-21 12:57:34 UTC
Программа кодирования                    : mkvmerge v78.0 ('Running') 64-bit
Библиотека кодирования                   : libebml v1.4.4 + libmatroska v1.7.1
Обложка                                  : Yes
Attachments                              : cover.jpg
PUBLISHER                                : buba5473
Ссылка                                   : https://github.com/Buba5473/av1_rips

Видео
Идентификатор                            : 1
Формат                                   : AV1
Формат/Информация                        : AOMedia Video 1
Профиль формата                          : Main@L4.1
Идентификатор кодека                     : V_AV1
Продолжительность                        : 2 ч. 3 м.
Битрейт                                  : 2 966 Кбит/сек
Ширина                                   : 1 920 пикселей
Высота                                   : 1 036 пикселей
Соотношение сторон                       : 1,85:1
Режим частоты кадров                     : Постоянный
Частота кадров                           : 23,976 (24000/1001) кадра/сек
Цветовое пространство                    : YUV
Субдискретизация насыщенности            : 4:2:0
Битовая глубина                          : 10 бит
Бит/(Пиксели*Кадры)                      : 0.062
Размер потока                            : 2,57 Гбайт (79%)
Заголовок                                : Tesis.1996.1080p.BDRip.AV1-DiN
Язык                                     : zxx
Default                                  : Нет
Forced                                   : Нет
Цветовой диапазон                        : Limited
Основные цвета                           : BT.709
Характеристики трансфера                 : BT.709
Коэффициенты матрицы                     : BT.709

Аудио #1
Идентификатор                            : 2
Формат                                   : AC-3
Формат/Информация                        : Audio Coding 3
Коммерческое название                    : Dolby Digital
Идентификатор кодека                     : A_AC3
Продолжительность                        : 2 ч. 3 м.
Вид битрейта                             : Постоянный
Битрейт                                  : 448 Кбит/сек
Каналы                                   : 6 каналов
Channel layout                           : L R C LFE Ls Rs
Частота                                  : 48,0 КГц
Частота кадров                           : 31,250 кадров/сек (1536 SPF)
Метод сжатия                             : С потерями
Задержка видео                           : 17 мс.
Размер потока                            : 397 Мбайт (12%)
Заголовок                                : Пepeвog: Пpoфeccuoнaльный (мнoгoгoлocый зakagpoвый) лuцeнзuя R5
Язык                                     : Russian (RU)
Service kind                             : Complete Main
Default                                  : Да
Forced                                   : Нет
AC3_metadata cmixlev                     : -3.0 dB
 surmixlev                               : -3 dB

 Аудио #2
 Идентификатор                            : 3
 Формат                                   : Opus
 Идентификатор кодека                     : A_OPUS
 Продолжительность                        : 2 ч. 3 м.
 Битрейт                                  : 320 Кбит/сек
 Каналы                                   : 6 каналов
 Channel layout                           : L R C Lb Rb LFE
 Частота                                  : 48,0 КГц
 Частота кадров                           : 50,000 кадров/сек (960 SPF)
 Метод сжатия                             : С потерями
 Размер потока                            : 284 Мбайт (9%)
 Язык                                     : Spanish (ES)
 Default                                  : Нет
 Forced                                   : Нет

 Текст #1
 Идентификатор                            : 4
 Формат                                   : UTF-8
 Идентификатор кодека                     : S_TEXT/UTF8
 Идентификатор кодека/Информация          : UTF-8 Plain Text
 Продолжительность                        : 2 ч. 1 м.
 Битрейт                                  : 84 бит/сек
 Частота кадров                           : 0,179 кадр/сек
 Count of elements                        : 1304
 Размер потока                            : 75,1 Кбайт (0%)
 Язык                                     : Russian (RU)
 Default                                  : Да
 Forced                                   : Нет

 Текст #2
 Идентификатор                            : 5
 Формат                                   : UTF-8
 Идентификатор кодека                     : S_TEXT/UTF8
 Идентификатор кодека/Информация          : UTF-8 Plain Text
 Продолжительность                        : 2 ч. 1 м.
 Битрейт                                  : 43 бит/сек
 Частота кадров                           : 0,186 кадр/сек
 Count of elements                        : 1357
 Размер потока                            : 38,5 Кбайт (0%)
 Язык                                     : English (US)
 Default                                  : Нет
 Forced                                   : Нет

 Меню
 00:00:00.000                             : Tesis
 00:03:38.515                             : Character
 00:13:17.510                             : The Film
 00:19:01.354                             : New Professor
 00:26:58.957                             : Cortes
 00:40:55.920                             : The Interview
 00:53:44.524                             : The Document
 01:01:57.392                             : Castro
 01:14:12.085                             : Bosco's Girlfriend
 01:29:34.008                             : My Name Is Angela
 01:36:50.028                             : The Camera
 01:52:20.543                             : I'm Going To Kill You
 02:01:27.924                             : Final Credits

